<svg width="65" height="24" viewBox="0 0 65 24" fill="none" xmlns="http://www.w3.org/2000/svg">
<g clip-path="url(#clip0)">
<path d="M13.4145 15.9312C13.1197 15.2331 12.692 14.5989 12.1551 14.0641C11.6198 13.5277 10.9858 13.1 10.2879 12.8047C10.2817 12.8016 10.2754 12.8 10.2692 12.7969C11.2426 12.0938 11.8754 10.9484 11.8754 9.65625C11.8754 7.51562 10.141 5.78125 8.00041 5.78125C5.85978 5.78125 4.12541 7.51562 4.12541 9.65625C4.12541 10.9484 4.75822 12.0937 5.73166 12.7984C5.72541 12.8016 5.71916 12.8031 5.71291 12.8062C5.01291 13.1016 4.38478 13.525 3.84572 14.0656C3.30933 14.6009 2.88166 15.235 2.58634 15.9328C2.29622 16.616 2.13975 17.3485 2.12541 18.0906C2.12499 18.1073 2.12791 18.1239 2.13401 18.1394C2.1401 18.1549 2.14924 18.1691 2.16089 18.181C2.17254 18.193 2.18646 18.2025 2.20184 18.2089C2.21721 18.2154 2.23372 18.2188 2.25041 18.2188H3.18791C3.25666 18.2188 3.31134 18.1641 3.31291 18.0969C3.34416 16.8906 3.82853 15.7609 4.68478 14.9047C5.57072 14.0188 6.74728 13.5312 8.00041 13.5312C9.25353 13.5312 10.4301 14.0188 11.316 14.9047C12.1723 15.7609 12.6567 16.8906 12.6879 18.0969C12.6895 18.1656 12.7442 18.2188 12.8129 18.2188H13.7504C13.7671 18.2188 13.7836 18.2154 13.799 18.2089C13.8143 18.2025 13.8283 18.193 13.8399 18.181C13.8516 18.1691 13.8607 18.1549 13.8668 18.1394C13.8729 18.1239 13.8758 18.1073 13.8754 18.0906C13.8598 17.3437 13.7051 16.6172 13.4145 15.9312V15.9312ZM8.00041 12.3438C7.28322 12.3438 6.60822 12.0641 6.10041 11.5563C5.59259 11.0484 5.31291 10.3734 5.31291 9.65625C5.31291 8.93906 5.59259 8.26406 6.10041 7.75625C6.60822 7.24844 7.28322 6.96875 8.00041 6.96875C8.71759 6.96875 9.39259 7.24844 9.90041 7.75625C10.4082 8.26406 10.6879 8.93906 10.6879 9.65625C10.6879 10.3734 10.4082 11.0484 9.90041 11.5563C9.39259 12.0641 8.71759 12.3438 8.00041 12.3438Z" fill="white"/>
<path d="M21.375 18H17.1172V6.72656H21.3906C22.3542 6.72656 23.1328 6.98438 23.7266 7.5C24.3255 8.01562 24.625 8.69531 24.625 9.53906C24.625 10.1276 24.4349 10.6615 24.0547 11.1406C23.6797 11.6146 23.2214 11.901 22.6797 12V12.0625C23.4453 12.1615 24.0547 12.4609 24.5078 12.9609C24.9661 13.4609 25.1953 14.0859 25.1953 14.8359C25.1953 15.8307 24.8568 16.6068 24.1797 17.1641C23.5078 17.7214 22.5729 18 21.375 18ZM18.5234 7.96875V11.5859H20.6328C21.4661 11.5859 22.1016 11.4245 22.5391 11.1016C22.9818 10.7786 23.2031 10.3125 23.2031 9.70312C23.2031 9.14583 23.0182 8.71875 22.6484 8.42188C22.2786 8.11979 21.7526 7.96875 21.0703 7.96875H18.5234ZM18.5234 16.7578H21.1641C22.013 16.7578 22.6562 16.5885 23.0938 16.25C23.5312 15.9115 23.75 15.4167 23.75 14.7656C23.75 13.4531 22.8438 12.7969 21.0312 12.7969H18.5234V16.7578ZM30.1016 18.1406C28.9661 18.1406 28.0547 17.763 27.3672 17.0078C26.6797 16.2474 26.3359 15.224 26.3359 13.9375C26.3359 12.651 26.6797 11.6302 27.3672 10.875C28.0547 10.1146 28.9661 9.73438 30.1016 9.73438C31.2318 9.73438 32.1406 10.1146 32.8281 10.875C33.5156 11.6302 33.8594 12.651 33.8594 13.9375C33.8594 15.2188 33.5156 16.2396 32.8281 17C32.1406 17.7604 31.2318 18.1406 30.1016 18.1406ZM28.3594 16.1484C28.7917 16.6797 29.3724 16.9453 30.1016 16.9453C30.8307 16.9453 31.4089 16.6823 31.8359 16.1562C32.263 15.625 32.4766 14.8854 32.4766 13.9375C32.4766 12.9896 32.263 12.2526 31.8359 11.7266C31.4089 11.1953 30.8307 10.9297 30.1016 10.9297C29.3724 10.9297 28.7917 11.1953 28.3594 11.7266C27.9323 12.2578 27.7188 12.9948 27.7188 13.9375C27.7188 14.8802 27.9323 15.6172 28.3594 16.1484ZM36.7109 18H35.3672V9.875H36.7109V15.9219H36.7734L40.8359 9.875H42.1797V18H40.8359V11.9531H40.7734L36.7109 18ZM36.4062 6.35938H37.4062C37.4062 6.82292 37.5443 7.20833 37.8203 7.51562C38.1016 7.82292 38.4688 7.97656 38.9219 7.97656C39.375 7.97656 39.7396 7.82292 40.0156 7.51562C40.2969 7.20833 40.4375 6.82292 40.4375 6.35938H41.4375C41.4375 7.07812 41.2031 7.66146 40.7344 8.10938C40.2708 8.55729 39.6667 8.78125 38.9219 8.78125C38.1771 8.78125 37.5703 8.55729 37.1016 8.10938C36.638 7.66146 36.4062 7.07812 36.4062 6.35938ZM50.0312 9.875V10.9922H47.4062V18H46.0625V10.9922H43.4375V9.875H50.0312ZM52.6328 18H51.2891V9.875H52.6328V15.9219H52.6953L56.7578 9.875H58.1016V18H56.7578V11.9531H56.6953L52.6328 18Z" fill="white"/>
</g>
<defs>
<clipPath id="clip0">
<rect width="65" height="24" fill="white"/>
</clipPath>
</defs>
</svg>
