<svg width="17" height="24" viewBox="0 0 17 24" fill="none" xmlns="http://www.w3.org/2000/svg">
<g clip-path="url(#clip0)">
<path d="M13.9145 15.9312C13.6197 15.2331 13.192 14.5989 12.6551 14.0641C12.1198 13.5277 11.4858 13.1 10.7879 12.8047C10.7817 12.8016 10.7754 12.8 10.7692 12.7969C11.7426 12.0938 12.3754 10.9484 12.3754 9.65625C12.3754 7.51562 10.641 5.78125 8.50041 5.78125C6.35978 5.78125 4.62541 7.51562 4.62541 9.65625C4.62541 10.9484 5.25822 12.0937 6.23166 12.7984C6.22541 12.8016 6.21916 12.8031 6.21291 12.8062C5.51291 13.1016 4.88478 13.525 4.34572 14.0656C3.80933 14.6009 3.38166 15.235 3.08634 15.9328C2.79622 16.616 2.63975 17.3485 2.62541 18.0906C2.62499 18.1073 2.62791 18.1239 2.63401 18.1394C2.6401 18.1549 2.64924 18.1691 2.66089 18.181C2.67254 18.193 2.68646 18.2025 2.70184 18.2089C2.71721 18.2154 2.73372 18.2188 2.75041 18.2188H3.68791C3.75666 18.2188 3.81134 18.1641 3.81291 18.0969C3.84416 16.8906 4.32853 15.7609 5.18478 14.9047C6.07072 14.0188 7.24728 13.5312 8.50041 13.5312C9.75353 13.5312 10.9301 14.0188 11.816 14.9047C12.6723 15.7609 13.1567 16.8906 13.1879 18.0969C13.1895 18.1656 13.2442 18.2188 13.3129 18.2188H14.2504C14.2671 18.2188 14.2836 18.2154 14.299 18.2089C14.3143 18.2025 14.3283 18.193 14.3399 18.181C14.3516 18.1691 14.3607 18.1549 14.3668 18.1394C14.3729 18.1239 14.3758 18.1073 14.3754 18.0906C14.3598 17.3437 14.2051 16.6172 13.9145 15.9312V15.9312ZM8.50041 12.3438C7.78322 12.3438 7.10822 12.0641 6.60041 11.5563C6.09259 11.0484 5.81291 10.3734 5.81291 9.65625C5.81291 8.93906 6.09259 8.26406 6.60041 7.75625C7.10822 7.24844 7.78322 6.96875 8.50041 6.96875C9.21759 6.96875 9.89259 7.24844 10.4004 7.75625C10.9082 8.26406 11.1879 8.93906 11.1879 9.65625C11.1879 10.3734 10.9082 11.0484 10.4004 11.5563C9.89259 12.0641 9.21759 12.3438 8.50041 12.3438Z" fill="white"/>
</g>
<defs>
<clipPath id="clip0">
<rect x="0.5" width="16" height="24" fill="white"/>
</clipPath>
</defs>
</svg>
